<?xml version="1.0" encoding="UTF-8"?>
<svg id="a" data-name="Layer_1" xmlns="http://www.w3.org/2000/svg" width="1500" height="1437.316" xmlns:xlink="http://www.w3.org/1999/xlink" viewBox="0 0 1500 1437.316">
  <defs>
    <linearGradient id="b" x1="307.101" y1="293.828" x2="1240.777" y2="293.828" gradientUnits="userSpaceOnUse">
      <stop offset="0" stop-color="#1047ff"/>
      <stop offset="1" stop-color="#4cd2ff"/>
    </linearGradient>
  </defs>
  <path d="M866.825,34.414L840.581,0c-177.015,81.69-287.993,185.548-357.014,289.549,84.434-95.954,206.631-189.031,383.258-255.135ZM1036.896,132.927l-62.263-81.53c-342.502,74.61-507.092,247.552-586.219,394.682,106.043-129.179,303.544-285.163,648.482-313.152ZM307.101,587.657c214.574-269.923,793.631-198.801,793.631-198.801l140.046-188.637c-689.003-82.475-933.677,387.438-933.677,387.438Z" fill="url(#b)"/>
  <g>
    <path d="M10.878,1414.489v-3.284h28.289v-8.954H10.878v-15.149h31.887v-9.205H0v37.225C0,1426.918,9.562,1436.483,21.358,1436.483h22.579v-9.205h-20.274c-7.061,0-12.785-5.726-12.785-12.789ZM594.442,1399.254v15.869c0,11.795,9.561,21.356,21.358,21.356h26.227v-9.205h-23.923c-7.058,0-12.784-5.722-12.784-12.784v-14.602c0-7.058,5.726-12.784,12.784-12.784h23.923v-9.205h-26.227c-11.797,0-21.358,9.565-21.358,21.356ZM1390.873,1399.254v15.869c0,11.795,9.563,21.356,21.36,21.356h26.227v-9.205h-23.923c-7.059,0-12.784-5.722-12.784-12.784v-14.602c0-7.058,5.725-12.784,12.784-12.784h23.923v-9.205h-26.227c-11.796,0-21.36,9.565-21.36,21.356ZM1007.66,1414.489v-36.592h-10.879v37.225c0,11.795,9.562,21.361,21.358,21.361h20.151v-9.205h-17.847c-7.06,0-12.784-5.726-12.784-12.789ZM366.389,1414.489v-3.284h28.289v-8.954h-28.289v-15.149h31.887v-9.205h-42.765v37.225c0,11.795,9.562,21.361,21.358,21.361h22.579v-9.205h-20.274c-7.061,0-12.785-5.726-12.785-12.789ZM911.754,1414.489v-3.284h28.289v-8.954h-28.289v-15.149h31.887v-9.205h-42.766v37.225c0,11.795,9.562,21.361,21.358,21.361h22.579v-9.205h-20.274c-7.06,0-12.784-5.726-12.784-12.789ZM104.528,1410.533c0,6.03-1.284,10.411-3.85,13.144-2.568,2.733-6.222,4.099-10.964,4.099s-8.412-1.366-11.006-4.099c-2.593-2.733-3.89-7.114-3.89-13.144v-32.635h-10.881v32.974c0,8.594,2.273,15.149,6.823,19.664,4.546,4.52,10.807,6.78,18.787,6.78,8.034,0,14.323-2.26,18.873-6.78,4.546-4.516,6.819-11.071,6.819-19.664v-32.974h-10.711v32.635ZM176.289,1416.897c3.71-1.674,6.569-4.043,8.577-7.114,2.009-3.067,3.013-6.75,3.013-11.045,0-4.355-1.004-8.091-3.013-11.214-2.009-3.123-4.867-5.514-8.577-7.153-3.712-1.648-8.16-2.473-13.349-2.473h-24.101v58.586h10.879v-17.075h13.222c.79,0,1.442-.152,2.197-.191l12.029,17.266h11.717l-13.523-19.3c.29-.117.647-.161.928-.286ZM162.439,1410.455h-12.721v-23.352h12.721c4.798,0,8.412,1.019,10.838,3.054,2.426,2.035,3.641,4.898,3.641,8.581s-1.215,6.555-3.641,8.62c-2.426,2.065-6.04,3.097-10.838,3.097ZM258.391,1385.554c-2.82-2.703-6.151-4.798-10.001-6.273-3.85-1.479-8.036-2.221-12.554-2.221-4.577,0-8.788.755-12.637,2.26-3.85,1.51-7.197,3.614-10.043,6.316-2.846,2.711-5.05,5.891-6.611,9.539-1.564,3.657-2.345,7.661-2.345,12.012,0,4.299.781,8.273,2.345,11.93,1.562,3.648,3.765,6.845,6.611,9.578,2.846,2.737,6.206,4.854,10.085,6.36,3.875,1.505,8.076,2.26,12.595,2.26s8.704-.742,12.554-2.217c3.85-1.479,7.182-3.588,10.001-6.316,2.814-2.737,5.006-5.93,6.568-9.583,1.562-3.653,2.345-7.661,2.345-12.012s-.783-8.368-2.345-12.051c-1.562-3.683-3.754-6.876-6.568-9.583ZM254.79,1415.474c-1.032,2.512-2.467,4.689-4.31,6.529-1.842,1.839-4.004,3.262-6.485,4.269-2.484,1.006-5.202,1.505-8.16,1.505s-5.706-.499-8.243-1.505c-2.54-1.006-4.727-2.442-6.571-4.312-1.84-1.865-3.293-4.056-4.351-6.568-1.06-2.512-1.589-5.245-1.589-8.203,0-3.011.529-5.761,1.589-8.242,1.058-2.481,2.511-4.659,4.351-6.529,1.844-1.865,4.031-3.306,6.571-4.312,2.538-1.002,5.287-1.505,8.243-1.505s5.676.503,8.16,1.505c2.481,1.006,4.657,2.429,6.528,4.269,1.869,1.839,3.306,4.017,4.31,6.529,1.005,2.512,1.506,5.275,1.506,8.286s-.516,5.778-1.549,8.286ZM324.672,1380.37c-3.713-1.648-8.16-2.473-13.35-2.473h-24.101v58.586h10.879v-16.905h13.222c5.191,0,9.637-.855,13.35-2.555,3.709-1.701,6.568-4.099,8.576-7.197,2.009-3.097,3.013-6.793,3.013-11.088,0-4.355-1.004-8.091-3.013-11.214-2.009-3.123-4.867-5.514-8.576-7.153ZM321.658,1407.314c-2.426,2.039-6.04,3.054-10.838,3.054h-12.721v-23.265h12.721c4.798,0,8.412,1.019,10.838,3.054,2.426,2.035,3.641,4.898,3.641,8.581s-1.215,6.542-3.641,8.576ZM438.028,1377.897l-26.362,58.586h11.131l5.823-13.561h29.3l5.801,13.561h11.466l-26.448-58.586h-10.711ZM432.287,1414.385l11.01-25.638,10.969,25.638h-21.979ZM532.262,1417.634l-32.305-39.737h-8.954v58.586h10.794v-39.724l32.221,39.724h8.956v-58.586h-10.713v39.737ZM698.308,1416.897c3.709-1.674,6.568-4.043,8.576-7.114,2.01-3.067,3.014-6.75,3.014-11.045,0-4.355-1.004-8.091-3.014-11.214-2.009-3.123-4.867-5.514-8.576-7.153-3.712-1.648-8.16-2.473-13.35-2.473h-24.1v58.586h10.878v-17.075h13.222c.79,0,1.443-.152,2.198-.191l12.029,17.266h11.717l-13.523-19.3c.291-.117.646-.161.928-.286ZM684.457,1410.455h-12.721v-23.352h12.721c4.799,0,8.412,1.019,10.839,3.054,2.425,2.035,3.641,4.898,3.641,8.581s-1.216,6.555-3.641,8.62c-2.427,2.065-6.04,3.097-10.839,3.097ZM770.489,1410.533c0,6.03-1.284,10.411-3.85,13.144-2.568,2.733-6.223,4.099-10.964,4.099s-8.412-1.366-11.006-4.099c-2.594-2.733-3.891-7.114-3.891-13.144v-32.635h-10.88v32.974c0,8.594,2.273,15.149,6.822,19.664,4.547,4.52,10.808,6.78,18.787,6.78,8.035,0,14.324-2.26,18.873-6.78,4.547-4.516,6.821-11.071,6.821-19.664v-32.974h-10.711v32.635ZM804.801,1436.483h10.88v-58.586h-10.88v58.586ZM874.848,1407.565c-2.065-1.197-4.326-2.178-6.78-2.928-2.455-.75-4.938-1.41-7.447-1.965-2.511-.56-4.786-1.145-6.821-1.761-2.039-.616-3.683-1.466-4.938-2.551-1.256-1.085-1.884-2.525-1.884-4.308,0-1.453.432-2.781,1.297-3.978.864-1.197,2.245-2.16,4.144-2.889,1.895-.72,4.324-1.089,7.28-1.089,2.566,0,5.244.382,8.033,1.132,2.789.755,5.495,1.909,8.12,3.47l3.429-8.451c-2.566-1.674-5.579-2.954-9.036-3.852-3.462-.889-6.947-1.336-10.461-1.336-5.358,0-9.78.798-13.266,2.382-3.487,1.592-6.083,3.713-7.785,6.364-1.701,2.651-2.551,5.566-2.551,8.746,0,3.128.627,5.692,1.883,7.7s2.914,3.614,4.978,4.811c2.065,1.202,4.338,2.191,6.823,2.972,2.482.781,4.964,1.44,7.448,1.969,2.482.525,4.74,1.111,6.779,1.753,2.035.646,3.694,1.51,4.978,2.599,1.282,1.089,1.926,2.525,1.926,4.312,0,1.449-.448,2.746-1.34,3.887-.893,1.145-2.288,2.052-4.183,2.724-1.897.664-4.381,1.002-7.448,1.002-3.628,0-7.17-.616-10.629-1.844-3.46-1.223-6.362-2.759-8.703-4.603l-3.767,8.455c2.51,2.065,5.843,3.748,10.001,5.063,4.156,1.31,8.521,1.965,13.098,1.965,5.355,0,9.79-.798,13.307-2.382,3.515-1.592,6.121-3.713,7.825-6.364,1.701-2.651,2.553-5.535,2.553-8.663,0-3.067-.629-5.592-1.885-7.57-1.254-1.982-2.916-3.57-4.978-4.772ZM1104.2,1385.554c-2.819-2.703-6.15-4.798-10-6.273-3.849-1.479-8.035-2.221-12.553-2.221-4.577,0-8.789.755-12.639,2.26-3.849,1.51-7.196,3.614-10.04,6.316-2.846,2.711-5.051,5.891-6.611,9.539-1.564,3.657-2.345,7.661-2.345,12.012,0,4.299.781,8.273,2.345,11.93,1.561,3.648,3.765,6.845,6.611,9.578,2.845,2.737,6.203,4.854,10.084,6.36,3.876,1.505,8.076,2.26,12.596,2.26s8.704-.742,12.553-2.217c3.85-1.479,7.182-3.588,10-6.316,2.815-2.737,5.008-5.93,6.569-9.583,1.562-3.653,2.345-7.661,2.345-12.012s-.783-8.368-2.345-12.051c-1.561-3.683-3.754-6.876-6.569-9.583ZM1100.6,1415.474c-1.032,2.512-2.467,4.689-4.311,6.529-1.84,1.839-4.002,3.262-6.483,4.269-2.485,1.006-5.204,1.505-8.16,1.505s-5.707-.499-8.245-1.505c-2.54-1.006-4.726-2.442-6.57-4.312-1.842-1.865-3.293-4.056-4.351-6.568-1.061-2.512-1.59-5.245-1.59-8.203,0-3.011.529-5.761,1.59-8.242,1.058-2.481,2.51-4.659,4.351-6.529,1.844-1.865,4.03-3.306,6.57-4.312,2.538-1.002,5.286-1.505,8.245-1.505s5.675.503,8.16,1.505c2.481,1.006,4.656,2.429,6.527,4.269,1.87,1.839,3.306,4.017,4.31,6.529,1.004,2.512,1.506,5.275,1.506,8.286s-.516,5.778-1.549,8.286ZM1145.749,1392.374c1.897-1.839,4.142-3.262,6.738-4.269,2.594-1.002,5.452-1.505,8.576-1.505,3.182,0,6.096.542,8.748,1.631,2.648,1.089,5.117,2.781,7.405,5.063l6.863-6.694c-2.733-3.119-6.095-5.492-10.084-7.114-3.991-1.618-8.44-2.425-13.348-2.425-4.687,0-8.943.742-12.763,2.221-3.824,1.475-7.171,3.583-10.044,6.316-2.873,2.733-5.091,5.913-6.652,9.539-1.563,3.631-2.344,7.648-2.344,12.051s.781,8.429,2.344,12.051c1.562,3.627,3.767,6.806,6.611,9.544,2.846,2.729,6.178,4.837,10,6.316,3.821,1.475,8.021,2.217,12.596,2.217,4.185,0,8.285-.629,12.303-1.878,4.017-1.258,7.531-3.11,10.545-5.566v-23.269h-10.21v18.09c-1.19.69-2.399,1.28-3.641,1.701-2.709.92-5.512,1.384-8.412,1.384-3.126,0-5.971-.499-8.537-1.505-2.566-1.006-4.798-2.429-6.695-4.269-1.897-1.839-3.376-4.03-4.435-6.568-1.061-2.538-1.59-5.288-1.59-8.247,0-3.011.529-5.774,1.59-8.286,1.058-2.512,2.538-4.689,4.435-6.529ZM1206.006,1436.483h10.879v-58.586h-10.879v58.586ZM1276.054,1407.565c-2.065-1.197-4.325-2.178-6.779-2.928-2.455-.75-4.938-1.41-7.448-1.965-2.51-.56-4.785-1.145-6.819-1.761-2.039-.616-3.684-1.466-4.939-2.551-1.256-1.085-1.883-2.525-1.883-4.308,0-1.453.432-2.781,1.297-3.978.863-1.197,2.245-2.16,4.144-2.889,1.895-.72,4.323-1.089,7.28-1.089,2.566,0,5.243.382,8.032,1.132,2.79.755,5.496,1.909,8.12,3.47l3.43-8.451c-2.566-1.674-5.579-2.954-9.037-3.852-3.461-.889-6.946-1.336-10.461-1.336-5.358,0-9.779.798-13.266,2.382-3.487,1.592-6.082,3.713-7.784,6.364-1.701,2.651-2.551,5.566-2.551,8.746,0,3.128.627,5.692,1.883,7.7,1.256,2.009,2.913,3.614,4.978,4.811,2.065,1.202,4.338,2.191,6.823,2.972,2.482.781,4.964,1.44,7.447,1.969,2.482.525,4.742,1.111,6.78,1.753,2.035.646,3.694,1.51,4.978,2.599,1.282,1.089,1.925,2.525,1.925,4.312,0,1.449-.448,2.746-1.339,3.887-.894,1.145-2.288,2.052-4.184,2.724-1.896.664-4.38,1.002-7.447,1.002-3.628,0-7.171-.616-10.629-1.844-3.46-1.223-6.362-2.759-8.704-4.603l-3.765,8.455c2.51,2.065,5.843,3.748,10.001,5.063,4.155,1.31,8.521,1.965,13.098,1.965,5.355,0,9.79-.798,13.306-2.382,3.515-1.592,6.121-3.713,7.825-6.364,1.702-2.651,2.553-5.535,2.553-8.663,0-3.067-.628-5.592-1.884-7.57-1.254-1.982-2.916-3.57-4.979-4.772ZM1293.713,1387.103h19.415v49.38h10.881v-49.38h19.414v-9.205h-49.71v9.205ZM1359.992,1436.483h10.88v-58.586h-10.88v58.586ZM1497.166,1412.337c-1.254-1.982-2.917-3.57-4.98-4.772-2.064-1.197-4.325-2.178-6.778-2.928-2.456-.75-4.939-1.41-7.448-1.965-2.51-.56-4.785-1.145-6.819-1.761-2.039-.616-3.685-1.466-4.939-2.551-1.256-1.085-1.884-2.525-1.884-4.308,0-1.453.433-2.781,1.297-3.978.864-1.197,2.246-2.16,4.144-2.889,1.896-.72,4.323-1.089,7.281-1.089,2.566,0,5.243.382,8.032,1.132,2.789.755,5.496,1.909,8.12,3.47l3.43-8.451c-2.566-1.674-5.579-2.954-9.038-3.852-3.46-.889-6.946-1.336-10.46-1.336-5.358,0-9.779.798-13.266,2.382-3.487,1.592-6.083,3.713-7.784,6.364-1.702,2.651-2.551,5.566-2.551,8.746,0,3.128.626,5.692,1.882,7.7,1.256,2.009,2.914,3.614,4.979,4.811,2.065,1.202,4.338,2.191,6.822,2.972,2.482.781,4.965,1.44,7.448,1.969,2.481.525,4.74,1.111,6.779,1.753,2.035.646,3.695,1.51,4.979,2.599,1.282,1.089,1.925,2.525,1.925,4.312,0,1.449-.448,2.746-1.339,3.887-.894,1.145-2.288,2.052-4.184,2.724-1.897.664-4.381,1.002-7.448,1.002-3.628,0-7.17-.616-10.628-1.844-3.461-1.223-6.362-2.759-8.704-4.603l-3.765,8.455c2.51,2.065,5.843,3.748,10.001,5.063,4.154,1.31,8.52,1.965,13.097,1.965,5.355,0,9.791-.798,13.307-2.382,3.514-1.592,6.121-3.713,7.825-6.364,1.702-2.651,2.553-5.535,2.553-8.663,0-3.067-.628-5.592-1.884-7.57Z" fill="#02279a"/>
    <path d="M1318.781,1146.678c-58.88,0-106.612-47.732-106.612-106.612v-357.375h-129.504v364.537c0,117.761,95.465,213.225,213.225,213.225h204.111v-113.775h-181.219ZM130.454,1040.851v-17.899h265.807v-129.882h-180.807c-27.703,0-53.462,14.238-68.201,37.694l-8.891,14.155h-7.908v-149.243h299.622v-112.985H.95v364.537c0,117.757,95.464,213.225,213.225,213.225h226.916v-112.989h-204.024c-58.881,0-106.612-47.732-106.612-106.612ZM531.176,895.916v151.312c0,117.757,95.464,213.225,213.225,213.225h226.916v-112.989h-204.024c-58.881,0-106.612-47.732-106.612-106.612v-138.558c0-58.881,47.732-106.612,106.612-106.612h204.024v-112.989h-226.916c-117.761,0-213.225,95.468-213.225,213.225Z" fill="#02279a"/>
  </g>
</svg>